HIERARCHY
ROOT mixamorig:Hips
{
	OFFSET 0.000000 201.639420 0.000000
	CHANNELS 6 Xposition Yposition Zposition Xrotation Yrotation Zrotation
	JOINT mixamorig:Spine
	{
		OFFSET 0.006200 19.524994 -2.481800
		CHANNELS 3 Xrotation Yrotation Zrotation
		JOINT mixamorig:Spine1
		{
			OFFSET -0.000900 22.835007 -2.825400
			CHANNELS 3 Xrotation Yrotation Zrotation
			JOINT mixamorig:Spine2
			{
				OFFSET -0.020600 26.552490 -3.193300
				CHANNELS 3 Xrotation Yrotation Zrotation
				JOINT mixamorig:Neck
				{
					OFFSET -0.060000 30.701813 1.352200
					CHANNELS 3 Xrotation Yrotation Zrotation
					JOINT mixamorig:Head
					{
						OFFSET -0.087200 22.547607 3.670900
						CHANNELS 3 Xrotation Yrotation Zrotation
						JOINT mixamorig:HeadTop_End
						{
							OFFSET -0.830600 40.355194 7.893500
							CHANNELS 3 Xrotation Yrotation Zrotation
							End Site
							{
								OFFSET 0.000000 30.592346 0.000000
							}
						}
						JOINT mixamorig:RightEye
						{
							OFFSET -6.302100 18.118591 16.197100
							CHANNELS 3 Xrotation Yrotation Zrotation
							End Site
							{
								OFFSET 0.000000 30.592346 0.000000
							}
						}
						JOINT mixamorig:LeftEye
						{
							OFFSET 6.741500 18.382690 16.401899
							CHANNELS 3 Xrotation Yrotation Zrotation
							End Site
							{
								OFFSET 0.000000 30.592346 0.000000
							}
						}
					}
				}
				JOINT mixamorig:LeftShoulder
				{
					OFFSET 11.924900 18.230499 1.425400
					CHANNELS 3 Xrotation Yrotation Zrotation
					JOINT mixamorig:LeftArm
					{
						OFFSET 25.435989 -0.697632 -5.229300
						CHANNELS 3 Xrotation Yrotation Zrotation
						JOINT mixamorig:LeftForeArm
						{
							OFFSET 54.684776 0.000000 0.000000
							CHANNELS 3 Xrotation Yrotation Zrotation
							JOINT mixamorig:LeftHand
							{
								OFFSET 55.098175 0.000000 0.000000
								CHANNELS 3 Xrotation Yrotation Zrotation
								JOINT mixamorig:LeftHandMiddle1
								{
									OFFSET 23.369751 0.000000 0.000000
									CHANNELS 3 Xrotation Yrotation Zrotation
									JOINT mixamorig:LeftHandMiddle2
									{
										OFFSET 6.378677 0.000000 0.000000
										CHANNELS 3 Xrotation Yrotation Zrotation
										JOINT mixamorig:LeftHandMiddle3
										{
											OFFSET 6.148331 0.000000 0.000000
											CHANNELS 3 Xrotation Yrotation Zrotation
											JOINT mixamorig:LeftHandMiddle4
											{
												OFFSET 6.582504 0.000000 0.000000
												CHANNELS 3 Xrotation Yrotation Zrotation
												End Site
												{
													OFFSET -1.168900 6.395691 1.028606
												}
											}
										}
									}
								}
								JOINT mixamorig:LeftHandThumb1
								{
									OFFSET 7.235672 -3.848206 5.434273
									CHANNELS 3 Xrotation Yrotation Zrotation
									JOINT mixamorig:LeftHandThumb2
									{
										OFFSET 6.568451 -3.792297 3.792300
										CHANNELS 3 Xrotation Yrotation Zrotation
										JOINT mixamorig:LeftHandThumb3
										{
											OFFSET 6.063080 -3.500519 3.500518
											CHANNELS 3 Xrotation Yrotation Zrotation
											JOINT mixamorig:LeftHandThumb4
											{
												OFFSET 4.793182 -2.767334 2.767349
												CHANNELS 3 Xrotation Yrotation Zrotation
												End Site
												{
													OFFSET 0.101639 6.054260 1.275483
												}
											}
										}
									}
								}
								JOINT mixamorig:LeftHandIndex1
								{
									OFFSET 23.101074 -0.309540 4.992809
									CHANNELS 3 Xrotation Yrotation Zrotation
									JOINT mixamorig:LeftHandIndex2
									{
										OFFSET 6.226883 0.000000 0.000000
										CHANNELS 3 Xrotation Yrotation Zrotation
										JOINT mixamorig:LeftHandIndex3
										{
											OFFSET 6.094330 0.000000 0.000000
											CHANNELS 3 Xrotation Yrotation Zrotation
											JOINT mixamorig:LeftHandIndex4
											{
												OFFSET 5.482605 0.000000 0.000000
												CHANNELS 3 Xrotation Yrotation Zrotation
												End Site
												{
													OFFSET -1.427902 5.233032 0.797164
												}
											}
										}
									}
								}
								JOINT mixamorig:LeftHandRing1
								{
									OFFSET 22.299240 0.021149 -3.964172
									CHANNELS 3 Xrotation Yrotation Zrotation
									JOINT mixamorig:LeftHandRing2
									{
										OFFSET 6.321869 0.000000 0.000000
										CHANNELS 3 Xrotation Yrotation Zrotation
										JOINT mixamorig:LeftHandRing3
										{
											OFFSET 5.899796 0.000000 0.000000
											CHANNELS 3 Xrotation Yrotation Zrotation
											JOINT mixamorig:LeftHandRing4
											{
												OFFSET 6.517899 0.000000 0.000000
												CHANNELS 3 Xrotation Yrotation Zrotation
												End Site
												{
													OFFSET -1.637299 6.232208 0.980890
												}
											}
										}
									}
								}
								JOINT mixamorig:LeftHandPinky1
								{
									OFFSET 20.463791 -0.302338 -8.562233
									CHANNELS 3 Xrotation Yrotation Zrotation
									JOINT mixamorig:LeftHandPinky2
									{
										OFFSET 6.908646 0.000000 0.000000
										CHANNELS 3 Xrotation Yrotation Zrotation
										JOINT mixamorig:LeftHandPinky3
										{
											OFFSET 4.622849 0.000000 0.000000
											CHANNELS 3 Xrotation Yrotation Zrotation
											JOINT mixamorig:LeftHandPinky4
											{
												OFFSET 5.216080 0.000000 0.000000
												CHANNELS 3 Xrotation Yrotation Zrotation
												End Site
												{
													OFFSET -0.606308 5.116241 0.814926
												}
											}
										}
									}
								}
							}
						}
					}
				}
				JOINT mixamorig:RightShoulder
				{
					OFFSET -12.001300 18.284088 1.348900
					CHANNELS 3 Xrotation Yrotation Zrotation
					JOINT mixamorig:RightArm
					{
						OFFSET -25.308500 -0.751312 -5.164599
						CHANNELS 3 Xrotation Yrotation Zrotation
						JOINT mixamorig:RightForeArm
						{
							OFFSET -54.684429 0.000000 0.000000
							CHANNELS 3 Xrotation Yrotation Zrotation
							JOINT mixamorig:RightHand
							{
								OFFSET -55.150291 0.000000 0.000000
								CHANNELS 3 Xrotation Yrotation Zrotation
								JOINT mixamorig:RightHandMiddle1
								{
									OFFSET -23.317566 0.000000 0.000000
									CHANNELS 3 Xrotation Yrotation Zrotation
									JOINT mixamorig:RightHandMiddle2
									{
										OFFSET -6.378403 0.000000 0.000000
										CHANNELS 3 Xrotation Yrotation Zrotation
										JOINT mixamorig:RightHandMiddle3
										{
											OFFSET -6.148193 0.000000 0.000000
											CHANNELS 3 Xrotation Yrotation Zrotation
											JOINT mixamorig:RightHandMiddle4
											{
												OFFSET -6.583389 0.000000 0.000000
												CHANNELS 3 Xrotation Yrotation Zrotation
												End Site
												{
													OFFSET 1.171692 6.395905 1.029786
												}
											}
										}
									}
								}
								JOINT mixamorig:RightHandThumb1
								{
									OFFSET -7.190521 -3.860474 5.435846
									CHANNELS 3 Xrotation Yrotation Zrotation
									JOINT mixamorig:RightHandThumb2
									{
										OFFSET -6.567429 -3.791718 3.791708
										CHANNELS 3 Xrotation Yrotation Zrotation
										JOINT mixamorig:RightHandThumb3
										{
											OFFSET -6.062469 -3.500153 3.500166
											CHANNELS 3 Xrotation Yrotation Zrotation
											JOINT mixamorig:RightHandThumb4
											{
												OFFSET -4.792618 -2.767029 2.767022
												CHANNELS 3 Xrotation Yrotation Zrotation
												End Site
												{
													OFFSET -0.100327 6.053253 1.276754
												}
											}
										}
									}
								}
								JOINT mixamorig:RightHandIndex1
								{
									OFFSET -23.048981 -0.310791 4.992554
									CHANNELS 3 Xrotation Yrotation Zrotation
									JOINT mixamorig:RightHandIndex2
									{
										OFFSET -6.227539 0.000000 0.000000
										CHANNELS 3 Xrotation Yrotation Zrotation
										JOINT mixamorig:RightHandIndex3
										{
											OFFSET -6.095047 0.000000 0.000000
											CHANNELS 3 Xrotation Yrotation Zrotation
											JOINT mixamorig:RightHandIndex4
											{
												OFFSET -5.484772 0.000000 0.000000
												CHANNELS 3 Xrotation Yrotation Zrotation
												End Site
												{
													OFFSET 1.420593 5.237305 0.797056
												}
											}
										}
									}
								}
								JOINT mixamorig:RightHandRing1
								{
									OFFSET -22.246323 0.020569 -3.963762
									CHANNELS 3 Xrotation Yrotation Zrotation
									JOINT mixamorig:RightHandRing2
									{
										OFFSET -6.322128 0.000000 0.000000
										CHANNELS 3 Xrotation Yrotation Zrotation
										JOINT mixamorig:RightHandRing3
										{
											OFFSET -5.900024 0.000000 0.000000
											CHANNELS 3 Xrotation Yrotation Zrotation
											JOINT mixamorig:RightHandRing4
											{
												OFFSET -6.518356 0.000000 0.000000
												CHANNELS 3 Xrotation Yrotation Zrotation
												End Site
												{
													OFFSET 1.636398 6.232697 0.982186
												}
											}
										}
									}
								}
								JOINT mixamorig:RightHandPinky1
								{
									OFFSET -20.411011 -0.303314 -8.561701
									CHANNELS 3 Xrotation Yrotation Zrotation
									JOINT mixamorig:RightHandPinky2
									{
										OFFSET -6.907349 0.000000 0.000000
										CHANNELS 3 Xrotation Yrotation Zrotation
										JOINT mixamorig:RightHandPinky3
										{
											OFFSET -4.623840 0.000000 0.000000
											CHANNELS 3 Xrotation Yrotation Zrotation
											JOINT mixamorig:RightHandPinky4
											{
												OFFSET -5.218353 0.000000 0.000000
												CHANNELS 3 Xrotation Yrotation Zrotation
												End Site
												{
													OFFSET 0.602097 5.118835 0.816273
												}
											}
										}
									}
								}
							}
						}
					}
				}
			}
		}
	}
	JOINT mixamorig:LeftUpLeg
	{
		OFFSET 18.168400 -13.561905 -0.039000
		CHANNELS 3 Xrotation Yrotation Zrotation
		JOINT mixamorig:LeftLeg
		{
			OFFSET 0.577358 -80.825211 -3.695000
			CHANNELS 3 Xrotation Yrotation Zrotation
			JOINT mixamorig:LeftFoot
			{
				OFFSET -0.577356 -83.370262 -6.520700
				CHANNELS 3 Xrotation Yrotation Zrotation
				JOINT mixamorig:LeftToeBase
				{
					OFFSET 0.750401 -20.798306 25.135401
					CHANNELS 3 Xrotation Yrotation Zrotation
					JOINT mixamorig:LeftToe_End
					{
						OFFSET -0.000500 0.001200 19.917799
						CHANNELS 3 Xrotation Yrotation Zrotation
						End Site
						{
							OFFSET 0.000000 19.917805 0.000000
						}
					}
				}
			}
		}
	}
	JOINT mixamorig:RightUpLeg
	{
		OFFSET -18.162500 -13.585098 -0.041000
		CHANNELS 3 Xrotation Yrotation Zrotation
		JOINT mixamorig:RightLeg
		{
			OFFSET -0.595024 -80.945297 -3.631900
			CHANNELS 3 Xrotation Yrotation Zrotation
			JOINT mixamorig:RightFoot
			{
				OFFSET 0.595024 -83.218193 -6.561200
				CHANNELS 3 Xrotation Yrotation Zrotation
				JOINT mixamorig:RightToeBase
				{
					OFFSET -0.753601 -20.807106 25.115000
					CHANNELS 3 Xrotation Yrotation Zrotation
					JOINT mixamorig:RightToe_End
					{
						OFFSET 0.000299 0.001700 19.918200
						CHANNELS 3 Xrotation Yrotation Zrotation
						End Site
						{
							OFFSET 0.000000 19.918203 0.000000
						}
					}
				}
			}
		}
	}
}
MOTION
Frames: 4
Frame Time: 0.033333
0.132719 191.281845 -1.581126 -2.442012 -15.634452 -1.309137 1.944429 2.725284 -0.466926 1.279845 2.291071 -0.472949 1.234573 2.312873 -0.501595 0.778803 -0.055796 3.899940 23.732778 6.139214 1.930523 0.000002 -0.000000 0.000001 0.000002 -0.000000 0.000001 0.000002 -0.000000 0.000001 2.428441 -8.370046 2.013559 -33.333242 -71.062852 -53.734594 0.000009 -24.723336 -0.000000 -99.891735 -5.166351 -9.177116 1.882372 4.734917 -43.341744 1.885030 4.737724 -43.373945 0.487077 2.548179 -21.639952 -0.000003 -0.000000 -0.000000 -1.540052 3.690173 6.142351 3.939033 7.948716 0.746808 -0.579464 1.574999 2.538723 0.000001 0.000001 -0.000004 1.883700 4.736322 -43.357839 1.883698 4.736315 -43.357863 0.487080 2.548189 -21.639938 0.000000 0.000001 -0.000002 1.883701 4.736341 -43.357846 1.883708 4.736327 -43.357850 0.487072 2.548181 -21.639955 0.000002 -0.000001 -0.000002 4.677936 7.689763 -43.149986 1.901472 0.667361 -43.734220 0.487088 2.548194 -21.639950 0.000001 -0.000003 0.000001 -0.102148 -9.038435 10.198067 -9.709850 100.050640 22.892255 0.000003 21.557518 -0.000008 -51.743536 -12.400195 -15.830514 4.038191 -6.312185 65.186472 4.038193 -6.312207 65.186465 1.091138 -3.744485 32.481866 -0.000001 -0.000000 -0.000003 -1.849235 -3.581796 -6.586141 4.637205 -8.634122 -0.225398 -1.273748 0.137311 -2.094865 0.000000 -0.000001 0.000002 4.038196 -6.312184 65.186465 4.038176 -6.312174 65.186478 1.091139 -3.744486 32.481863 -0.000003 -0.000000 -0.000002 4.038198 -6.312200 65.186465 4.038184 -6.312211 65.186465 1.091135 -3.744483 32.481873 -0.000002 0.000000 0.000000 4.038185 -6.312182 65.186465 4.038197 -6.312203 65.186458 1.091134 -3.744474 32.481863 -0.000004 -0.000001 0.000000 -28.811005 21.912510 11.642079 35.489738 7.540100 10.282975 -7.156306 0.894606 -9.606001 -0.000066 0.000005 -0.000001 -0.000000 0.000002 0.000000 -24.656233 -21.522309 -8.678721 36.212522 -4.925890 -10.266289 -10.952624 -1.305964 9.881595 -0.000004 -0.000005 0.000003 -0.000000 0.000000 -0.000000 
0.137532 191.282578 -1.556385 -2.431553 -15.608900 -1.312415 1.946424 2.728980 -0.503787 1.287872 2.294953 -0.492782 1.242184 2.317092 -0.520826 0.794759 -0.094057 3.990381 23.840429 6.118003 1.821182 -0.000001 -0.000000 -0.000000 -0.000001 -0.000000 -0.000000 -0.000001 -0.000000 -0.000000 2.518149 -8.573535 2.373712 -33.542687 -70.702785 -53.979911 -0.000001 -24.999816 -0.000005 -99.868506 -5.229580 -8.981585 1.882370 4.734919 -43.341751 1.885025 4.737725 -43.373948 0.487078 2.548181 -21.639948 -0.000001 -0.000000 0.000000 -1.540053 3.690178 6.142340 3.939032 7.948718 0.746807 -0.579466 1.575000 2.538725 0.000003 -0.000000 -0.000001 1.883702 4.736322 -43.357843 1.883694 4.736315 -43.357863 0.487079 2.548187 -21.639941 0.000000 0.000000 0.000000 1.883704 4.736340 -43.357843 1.883712 4.736323 -43.357853 0.487075 2.548182 -21.639952 0.000001 -0.000002 -0.000001 4.677936 7.689763 -43.149990 1.901471 0.667363 -43.734220 0.487091 2.548190 -21.639957 -0.000003 0.000000 0.000001 -0.111566 -9.190595 10.481161 -10.606599 100.137438 23.797310 0.000001 21.559241 0.000001 -51.538299 -12.577448 -15.618554 4.038196 -6.312189 65.186472 4.038190 -6.312209 65.186465 1.091134 -3.744484 32.481866 -0.000002 -0.000001 -0.000001 -1.849236 -3.581798 -6.586144 4.637202 -8.634119 -0.225397 -1.273746 0.137309 -2.094870 -0.000002 -0.000001 0.000002 4.038196 -6.312190 65.186465 4.038176 -6.312170 65.186485 1.091140 -3.744490 32.481866 0.000003 -0.000000 -0.000002 4.038198 -6.312202 65.186465 4.038188 -6.312206 65.186465 1.091134 -3.744480 32.481870 -0.000003 -0.000001 0.000001 4.038186 -6.312183 65.186465 4.038195 -6.312197 65.186465 1.091137 -3.744473 32.481866 -0.000002 -0.000000 0.000001 -28.819693 21.923360 11.670730 35.491029 7.563577 10.282600 -7.164109 0.887543 -9.623445 -0.000066 0.000005 -0.000001 -0.000000 0.000000 0.000000 -24.668128 -21.597292 -8.709223 36.212024 -4.886704 -10.266376 -10.961103 -1.299976 9.876264 -0.000004 -0.000007 0.000003 -0.000000 -0.000002 -0.000000 
0.146025 191.271057 -1.527016 -2.419198 -15.588568 -1.302641 1.955059 2.724017 -0.538088 1.304347 2.291938 -0.518065 1.257904 2.315025 -0.545191 0.806810 -0.127175 4.068842 23.950688 6.101996 1.711621 0.000001 0.000000 -0.000000 0.000001 0.000000 -0.000000 0.000001 0.000000 -0.000000 2.619213 -8.783502 2.820174 -34.007922 -70.122991 -54.509090 0.000005 -25.388027 -0.000008 -99.756764 -5.290481 -8.714159 1.882370 4.734919 -43.341751 1.885025 4.737723 -43.373942 0.487075 2.548180 -21.639948 0.000001 0.000001 -0.000001 -1.540046 3.690171 6.142343 3.939037 7.948715 0.746811 -0.579466 1.575002 2.538723 0.000004 0.000000 -0.000001 1.883704 4.736320 -43.357839 1.883699 4.736314 -43.357860 0.487082 2.548190 -21.639941 0.000000 0.000001 -0.000001 1.883702 4.736338 -43.357843 1.883714 4.736323 -43.357853 0.487069 2.548179 -21.639960 -0.000003 -0.000003 0.000002 4.677937 7.689762 -43.149990 1.901467 0.667362 -43.734214 0.487089 2.548192 -21.639959 -0.000002 0.000001 0.000003 -0.117891 -9.299543 10.681132 -11.146164 100.201177 24.320582 0.000001 21.540813 -0.000001 -51.246291 -12.803415 -15.281085 4.038192 -6.312186 65.186472 4.038192 -6.312208 65.186465 1.091136 -3.744485 32.481866 0.000002 0.000001 -0.000004 -1.849237 -3.581796 -6.586141 4.637198 -8.634117 -0.225399 -1.273753 0.137312 -2.094869 -0.000001 0.000001 0.000001 4.038197 -6.312185 65.186465 4.038174 -6.312172 65.186478 1.091140 -3.744489 32.481866 0.000002 -0.000003 -0.000001 4.038192 -6.312199 65.186472 4.038184 -6.312203 65.186465 1.091141 -3.744481 32.481876 -0.000001 0.000001 -0.000001 4.038182 -6.312181 65.186465 4.038193 -6.312200 65.186465 1.091130 -3.744475 32.481866 0.000001 -0.000001 0.000001 -28.827759 21.923890 11.687334 35.505765 7.625164 10.282342 -7.179971 0.877350 -9.653452 -0.000066 0.000007 -0.000001 0.000000 0.000002 0.000000 -24.709572 -21.671362 -8.764021 36.247780 -4.827445 -10.265812 -10.985877 -1.292432 9.866957 -0.000004 -0.000007 0.000003 0.000000 0.000000 0.000000 
0.158027 191.252502 -1.495124 -2.408024 -15.559801 -1.284338 1.969671 2.701764 -0.564710 1.328293 2.275542 -0.543039 1.281867 2.299730 -0.569073 0.809020 -0.148412 4.123154 24.042095 6.100931 1.642462 -0.000001 -0.000000 0.000000 -0.000001 -0.000000 0.000000 -0.000001 -0.000000 0.000000 2.719838 -8.971630 3.311912 -34.759847 -69.326133 -55.361453 0.000008 -25.842422 -0.000006 -99.531122 -5.336988 -8.423596 1.882372 4.734915 -43.341747 1.885026 4.737724 -43.373948 0.487080 2.548183 -21.639955 -0.000000 0.000002 -0.000003 -1.540052 3.690171 6.142346 3.939033 7.948716 0.746810 -0.579465 1.575001 2.538723 0.000001 -0.000002 0.000000 1.883702 4.736318 -43.357839 1.883698 4.736314 -43.357863 0.487080 2.548185 -21.639943 0.000000 0.000000 -0.000001 1.883705 4.736334 -43.357836 1.883716 4.736323 -43.357853 0.487075 2.548180 -21.639957 -0.000002 -0.000002 0.000007 4.677937 7.689761 -43.149990 1.901464 0.667362 -43.734220 0.487092 2.548193 -21.639959 0.000000 0.000001 0.000002 -0.121903 -9.365626 10.795009 -11.055300 100.240430 24.198727 -0.000001 21.506085 -0.000001 -50.948772 -13.155267 -14.879811 4.038192 -6.312187 65.186472 4.038193 -6.312204 65.186465 1.091136 -3.744486 32.481866 0.000003 -0.000002 -0.000002 -1.849246 -3.581797 -6.586144 4.637207 -8.634121 -0.225401 -1.273748 0.137306 -2.094871 -0.000002 -0.000003 -0.000001 4.038190 -6.312187 65.186472 4.038172 -6.312174 65.186478 1.091138 -3.744492 32.481863 0.000003 -0.000000 -0.000001 4.038188 -6.312199 65.186465 4.038184 -6.312210 65.186465 1.091136 -3.744483 32.481870 -0.000003 -0.000002 -0.000000 4.038178 -6.312188 65.186472 4.038195 -6.312201 65.186458 1.091131 -3.744471 32.481866 0.000005 -0.000001 0.000000 -28.815653 21.854112 11.656569 35.522161 7.745292 10.281951 -7.193117 0.874880 -9.697334 -0.000066 0.000007 -0.000001 0.000000 -0.000000 -0.000000 -24.775418 -21.784074 -8.852363 36.310525 -4.722853 -10.264689 -11.024508 -1.285406 9.845001 -0.000004 -0.000005 0.000003 -0.000000 -0.000000 -0.000000 
